<svg width="23" height="24" viewBox="0 0 23 24" fill="none" xmlns="http://www.w3.org/2000/svg">
<path fill-rule="evenodd" clip-rule="evenodd" d="M8.97438 2.51724C7.06299 2.51724 5.22989 3.27654 3.87834 4.62809C2.52678 5.97965 1.76749 7.81275 1.76749 9.72414C1.76749 10.6706 1.9539 11.6077 2.31608 12.4821C2.67826 13.3565 3.20911 14.151 3.87834 14.8202C4.54756 15.4894 5.34204 16.0203 6.21642 16.3824C7.0908 16.7446 8.02796 16.931 8.97438 16.931C9.92081 16.931 10.858 16.7446 11.7323 16.3824C12.6067 16.0203 13.4012 15.4894 14.0704 14.8202C14.7396 14.151 15.2705 13.3565 15.6327 12.4821C15.9949 11.6077 16.1813 10.6706 16.1813 9.72414C16.1813 7.81275 15.422 5.97965 14.0704 4.62809C12.7189 3.27654 10.8858 2.51724 8.97438 2.51724ZM2.80548 3.55524C4.44158 1.91915 6.6606 1 8.97438 1C11.2882 1 13.5072 1.91915 15.1433 3.55524C16.7794 5.19133 17.6985 7.41035 17.6985 9.72414C17.6985 10.8698 17.4729 12.0043 17.0344 13.0627C16.6931 13.8868 16.2279 14.6523 15.6563 15.3332L22.028 21.705C22.3243 22.0012 22.3243 22.4815 22.028 22.7778C21.7318 23.0741 21.2515 23.0741 20.9552 22.7778L14.5835 16.4061C13.9026 16.9777 13.1371 17.4428 12.313 17.7842C11.2545 18.2226 10.1201 18.4483 8.97438 18.4483C7.82871 18.4483 6.69426 18.2226 5.6358 17.7842C4.57734 17.3458 3.6156 16.7031 2.80548 15.893C1.99537 15.0829 1.35276 14.1212 0.91433 13.0627C0.475901 12.0043 0.250244 10.8698 0.250244 9.72414C0.250244 7.41035 1.16939 5.19133 2.80548 3.55524Z" fill="#B2294B" stroke="#B2294B" stroke-width="0.5" stroke-linecap="round" stroke-linejoin="round"/>
</svg>
