<svg width="16" height="17" viewBox="0 0 16 17" fill="none" xmlns="http://www.w3.org/2000/svg">
<path fill-rule="evenodd" clip-rule="evenodd" d="M4.26698 1.9551C4.91024 1.90375 5.52089 1.65073 6.01198 1.2321C6.56664 0.759695 7.27141 0.500244 7.99998 0.500244C8.72856 0.500244 9.43332 0.759695 9.98798 1.2321C10.4791 1.65073 11.0897 1.90375 11.733 1.9551C12.4594 2.01316 13.1414 2.32807 13.6567 2.84337C14.172 3.35867 14.4869 4.04067 14.545 4.7671C14.596 5.4101 14.849 6.0211 15.268 6.5121C15.7404 7.06677 15.9998 7.77153 15.9998 8.5001C15.9998 9.22868 15.7404 9.93344 15.268 10.4881C14.8493 10.9792 14.5963 11.5898 14.545 12.2331C14.4869 12.9595 14.172 13.6415 13.6567 14.1568C13.1414 14.6721 12.4594 14.987 11.733 15.0451C11.0897 15.0965 10.4791 15.3495 9.98798 15.7681C9.43332 16.2405 8.72856 16.5 7.99998 16.5C7.27141 16.5 6.56664 16.2405 6.01198 15.7681C5.52089 15.3495 4.91024 15.0965 4.26698 15.0451C3.54055 14.987 2.85855 14.6721 2.34325 14.1568C1.82794 13.6415 1.51304 12.9595 1.45498 12.2331C1.40362 11.5898 1.15061 10.9792 0.731982 10.4881C0.259573 9.93344 0.00012207 9.22868 0.00012207 8.5001C0.00012207 7.77153 0.259573 7.06677 0.731982 6.5121C1.15061 6.02102 1.40362 5.41036 1.45498 4.7671C1.51304 4.04067 1.82794 3.35867 2.34325 2.84337C2.85855 2.32807 3.54055 2.01316 4.26698 1.9551ZM11.707 7.2071C11.8891 7.0185 11.9899 6.7659 11.9877 6.5037C11.9854 6.24151 11.8802 5.99069 11.6948 5.80529C11.5094 5.61988 11.2586 5.51471 10.9964 5.51243C10.7342 5.51015 10.4816 5.61095 10.293 5.7931L6.99998 9.0861L5.70698 7.7931C5.51838 7.61095 5.26578 7.51015 5.00358 7.51243C4.74138 7.51471 4.49057 7.61988 4.30516 7.80529C4.11976 7.99069 4.01459 8.24151 4.01231 8.5037C4.01003 8.7659 4.11082 9.0185 4.29298 9.2071L6.29298 11.2071C6.48051 11.3946 6.73482 11.4999 6.99998 11.4999C7.26515 11.4999 7.51945 11.3946 7.70698 11.2071L11.707 7.2071Z" fill="#2882F5"/>
</svg>
